<svg width="16" height="16" viewBox="0 0 16 16" fill="none" xmlns="http://www.w3.org/2000/svg">
<rect x="0.400024" y="0.300049" width="15.42" height="15.43" fill="white"/>
<path fill-rule="evenodd" clip-rule="evenodd" d="M6.84314 10.9636C6.84314 11.6058 7.36377 12.1265 8.00599 12.1265C8.64822 12.1265 9.16885 11.6058 9.16885 10.9636V8.541C9.16885 8.43396 9.08207 8.34719 8.97504 8.34719C8.868 8.34719 8.78123 8.43396 8.78123 8.541V10.9636C8.78123 11.3918 8.43414 11.7388 8.00599 11.7388C7.57784 11.7388 7.23076 11.3918 7.23076 10.9636V10.8546C7.23076 10.7476 7.14399 10.6608 7.03695 10.6608C6.92991 10.6608 6.84314 10.7476 6.84314 10.8546V10.9636Z" fill="#7FD9FF"/>
<path fill-rule="evenodd" clip-rule="evenodd" d="M7.03695 10.0794C7.14399 10.0794 7.23076 9.99264 7.23076 9.8856V8.54105C7.23076 8.43401 7.14399 8.34724 7.03695 8.34724C6.92991 8.34724 6.84314 8.43401 6.84314 8.54105V9.8856C6.84314 9.99264 6.92991 10.0794 7.03695 10.0794Z" fill="#9BDBB3"/>
<path fill-rule="evenodd" clip-rule="evenodd" d="M5.87415 10.9637C5.87415 12.1412 6.82863 13.0956 8.00604 13.0956C9.18346 13.0956 10.1379 12.1412 10.1379 10.9637V9.55863C10.1379 9.45159 10.0512 9.36482 9.94413 9.36482C9.83709 9.36482 9.75032 9.45159 9.75032 9.55863V10.9637C9.75032 11.9271 8.96938 12.708 8.00604 12.708C7.0427 12.708 6.26176 11.9271 6.26176 10.9637V10.5034C6.26176 10.3964 6.17499 10.3096 6.06795 10.3096C5.96092 10.3096 5.87415 10.3964 5.87415 10.5034L5.87415 10.9637Z" fill="#FFE483"/>
<path fill-rule="evenodd" clip-rule="evenodd" d="M6.06795 9.65558C6.17499 9.65558 6.26176 9.56881 6.26176 9.46177V7.80228C6.26176 7.69524 6.17499 7.60847 6.06795 7.60847C5.96092 7.60847 5.87415 7.69524 5.87415 7.80228V9.46177C5.87415 9.56881 5.96092 9.65558 6.06795 9.65558Z" fill="#7FD9FF"/>
<path fill-rule="evenodd" clip-rule="evenodd" d="M8.00594 4.71344C8.11298 4.71344 8.19975 4.62667 8.19975 4.51963V2.23026C8.19975 2.12323 8.11298 2.03645 8.00594 2.03645C7.8989 2.03645 7.81213 2.12323 7.81213 2.23026V4.51963C7.81213 4.62667 7.8989 4.71344 8.00594 4.71344Z" fill="#7FD9FF"/>
<path fill-rule="evenodd" clip-rule="evenodd" d="M9.94405 8.78345C10.0511 8.78345 10.1379 8.69668 10.1379 8.58964V7.8144C10.1379 7.70737 10.0511 7.62059 9.94405 7.62059C9.83702 7.62059 9.75024 7.70737 9.75024 7.8144V8.58964C9.75024 8.69668 9.83702 8.78345 9.94405 8.78345Z" fill="#9BDBB3"/>
<path d="M11.107 10.9637V6.82103C11.107 6.71399 11.0202 6.62722 10.9132 6.62722C10.8061 6.62722 10.7193 6.71399 10.7193 6.82103V10.9637C10.7193 11.5139 10.5555 12.0259 10.274 12.4536L10.5946 12.6716C10.9184 12.1818 11.107 11.5948 11.107 10.9637Z" fill="#7FD9FF"/>
<path d="M4.90515 10.9516C4.90515 12.6632 6.29244 14.0647 8.00609 14.0647C8.49261 14.0647 8.95297 13.9527 9.36276 13.753L9.19317 13.4043C8.83461 13.579 8.4318 13.6771 8.00609 13.6771C6.50861 13.6771 5.29277 12.4512 5.29277 10.9516C5.29277 10.8446 5.206 10.7578 5.09896 10.7578C4.99192 10.7578 4.90515 10.8446 4.90515 10.9516Z" fill="#9BDBB3"/>
<path fill-rule="evenodd" clip-rule="evenodd" d="M5.09896 9.83716C5.206 9.83716 5.29277 9.75039 5.29277 9.64335V6.84523C5.29277 6.7382 5.206 6.65142 5.09896 6.65142C4.99192 6.65142 4.90515 6.7382 4.90515 6.84523V9.64335C4.90515 9.75039 4.99192 9.83716 5.09896 9.83716Z" fill="#FFE483"/>
<path fill-rule="evenodd" clip-rule="evenodd" d="M8.00595 10.6609C8.11299 10.6609 8.19976 10.5742 8.19976 10.4671L8.19975 7.81438C8.19975 7.70734 8.11298 7.62057 8.00594 7.62057C7.89891 7.62057 7.81213 7.70734 7.81213 7.81438L7.81214 10.4671C7.81214 10.5742 7.89891 10.6609 8.00595 10.6609Z" fill="#FFE483"/>
<path d="M5.48654 9.67977C5.48654 9.46569 5.313 9.29215 5.09892 9.29215C4.88485 9.29215 4.7113 9.46569 4.7113 9.67977C4.7113 9.89384 4.88485 10.0674 5.09892 10.0674C5.313 10.0674 5.48654 9.89384 5.48654 9.67977Z" fill="#FFD026"/>
<path d="M6.45553 7.71742C6.45553 7.50335 6.28199 7.32981 6.06792 7.32981C5.85384 7.32981 5.6803 7.50335 5.6803 7.71742C5.6803 7.9315 5.85384 8.10504 6.06792 8.10504C6.28199 8.10504 6.45553 7.9315 6.45553 7.71742Z" fill="#2BB5EF"/>
<path fill-rule="evenodd" clip-rule="evenodd" d="M3.5 6.65133C3.5 6.75837 3.58677 6.84514 3.69381 6.84514L6.54038 6.84514C6.64741 6.84514 6.73419 6.75837 6.73419 6.65133C6.73419 6.54429 6.64741 6.45752 6.54038 6.45752L3.69381 6.45752C3.58677 6.45752 3.5 6.54429 3.5 6.65133Z" fill="#FFE483"/>
<path fill-rule="evenodd" clip-rule="evenodd" d="M7.13391 6.65133C7.13391 6.75837 7.22068 6.84514 7.32772 6.84514L12.3062 6.84514C12.4132 6.84514 12.5 6.75837 12.5 6.65133C12.5 6.54429 12.4132 6.45752 12.3062 6.45752L7.32772 6.45752C7.22068 6.45752 7.13391 6.54429 7.13391 6.65133Z" fill="#7FD9FF"/>
<path d="M6.45553 10.4308C6.45553 10.2167 6.28199 10.0432 6.06792 10.0432C5.85384 10.0432 5.6803 10.2167 5.6803 10.4308C5.6803 10.6449 5.85384 10.8184 6.06792 10.8184C6.28199 10.8184 6.45553 10.6449 6.45553 10.4308Z" fill="#FFD026"/>
<path d="M8.39364 10.4308C8.39364 10.2167 8.2201 10.0432 8.00603 10.0432C7.79195 10.0432 7.61841 10.2167 7.61841 10.4308C7.61841 10.6449 7.79195 10.8184 8.00603 10.8184C8.2201 10.8184 8.39364 10.6449 8.39364 10.4308Z" fill="#FFD026"/>
<path d="M8.39364 7.71742C8.39364 7.50335 8.2201 7.32981 8.00603 7.32981C7.79195 7.32981 7.61841 7.50335 7.61841 7.71742C7.61841 7.9315 7.79195 8.10504 8.00603 8.10504C8.2201 8.10504 8.39364 7.9315 8.39364 7.71742Z" fill="#FFD026"/>
<path fill-rule="evenodd" clip-rule="evenodd" d="M7.81213 4.51955C7.81213 4.62659 7.8989 4.71336 8.00594 4.71336L10.368 4.71336C10.475 4.71336 10.5618 4.62659 10.5618 4.51955C10.5618 4.41252 10.475 4.32574 10.368 4.32574L8.00594 4.32574C7.8989 4.32574 7.81213 4.41252 7.81213 4.51955Z" fill="#7FD9FF"/>
<path fill-rule="evenodd" clip-rule="evenodd" d="M5.43811 4.51955C5.43811 4.62659 5.52488 4.71336 5.63192 4.71336L7.04915 4.71336C7.15618 4.71336 7.24296 4.62659 7.24296 4.51955C7.24296 4.41252 7.15618 4.32574 7.04915 4.32574L5.63192 4.32574C5.52488 4.32574 5.43811 4.41252 5.43811 4.51955Z" fill="#FFE483"/>
<path d="M10.3318 9.55867C10.3318 9.3446 10.1582 9.17105 9.94414 9.17105C9.73006 9.17105 9.55652 9.3446 9.55652 9.55867C9.55652 9.77275 9.73006 9.94629 9.94414 9.94629C10.1582 9.94629 10.3318 9.77275 10.3318 9.55867Z" fill="#FFD026"/>
<path d="M10.3318 7.71742C10.3318 7.50335 10.1582 7.32981 9.94414 7.32981C9.73006 7.32981 9.55652 7.50335 9.55652 7.71742C9.55652 7.9315 9.73006 8.10504 9.94414 8.10504C10.1582 8.10504 10.3318 7.9315 10.3318 7.71742Z" fill="#16A75C"/>
<path fill-rule="evenodd" clip-rule="evenodd" d="M4.46912 5.58553C4.46912 5.69257 4.55589 5.77934 4.66293 5.77934L11.3372 5.77934C11.4443 5.77934 11.531 5.69257 11.531 5.58553C11.531 5.4785 11.4443 5.39172 11.3372 5.39172L4.66293 5.39172C4.55589 5.39172 4.46912 5.47849 4.46912 5.58553Z" fill="#9BDBB3"/>
<path d="M7.42453 9.87355C7.42453 9.65948 7.25099 9.48593 7.03691 9.48593C6.82283 9.48593 6.64929 9.65948 6.64929 9.87355C6.64929 10.0876 6.82283 10.2612 7.03691 10.2612C7.25099 10.2612 7.42453 10.0876 7.42453 9.87355Z" fill="#16A75C"/>
<path d="M7.42453 11.0364C7.42453 10.8223 7.25099 10.6488 7.03691 10.6488C6.82283 10.6488 6.64929 10.8223 6.64929 11.0364C6.64929 11.2505 6.82283 11.424 7.03691 11.424C7.25099 11.424 7.42453 11.2505 7.42453 11.0364Z" fill="#2BB5EF"/>
<path d="M5.48654 10.9396C5.48654 10.7255 5.313 10.552 5.09892 10.552C4.88485 10.552 4.7113 10.7255 4.7113 10.9396C4.7113 11.1537 4.88485 11.3272 5.09892 11.3272C5.313 11.3272 5.48654 11.1537 5.48654 10.9396Z" fill="#16A75C"/>
<path d="M9.65341 13.6285C9.65341 13.4144 9.47987 13.2409 9.26579 13.2409C9.05172 13.2409 8.87817 13.4144 8.87817 13.6285C8.87817 13.8426 9.05172 14.0161 9.26579 14.0161C9.47987 14.0161 9.65341 13.8426 9.65341 13.6285Z" fill="#16A75C"/>
<path d="M10.7678 12.611C10.7678 12.397 10.5942 12.2234 10.3802 12.2234C10.1661 12.2234 9.99255 12.397 9.99255 12.611C9.99255 12.8251 10.1661 12.9987 10.3802 12.9987C10.5942 12.9987 10.7678 12.8251 10.7678 12.611Z" fill="#2BB5EF"/>
<path d="M8.39364 4.51961C8.39364 4.30553 8.2201 4.13199 8.00603 4.13199C7.79195 4.13199 7.61841 4.30553 7.61841 4.51961C7.61841 4.73368 7.79195 4.90723 8.00603 4.90723C8.2201 4.90723 8.39364 4.73368 8.39364 4.51961Z" fill="#2BB5EF"/>
<path d="M8.39364 3.45369C8.39364 3.23962 8.2201 3.06607 8.00603 3.06607C7.79195 3.06607 7.61841 3.23962 7.61841 3.45369C7.61841 3.66777 7.79195 3.84131 8.00603 3.84131C8.2201 3.84131 8.39364 3.66777 8.39364 3.45369Z" fill="#2BB5EF"/>
<path d="M8.39364 2.38771C8.39364 2.17364 8.2201 2.00009 8.00603 2.00009C7.79195 2.00009 7.61841 2.17364 7.61841 2.38771C7.61841 2.60179 7.79195 2.77533 8.00603 2.77533C8.2201 2.77533 8.39364 2.60179 8.39364 2.38771Z" fill="#2BB5EF"/>
<path d="M5.48654 6.65151C5.48654 6.43743 5.313 6.26389 5.09892 6.26389C4.88485 6.26389 4.7113 6.43743 4.7113 6.65151C4.7113 6.86558 4.88485 7.03912 5.09892 7.03912C5.313 7.03912 5.48654 6.86558 5.48654 6.65151Z" fill="#FFD026"/>
<path d="M11.3009 6.65151C11.3009 6.43743 11.1273 6.26389 10.9133 6.26389C10.6992 6.26389 10.5256 6.43743 10.5256 6.65151C10.5256 6.86558 10.6992 7.03912 10.9133 7.03912C11.1273 7.03912 11.3009 6.86558 11.3009 6.65151Z" fill="#2BB5EF"/>
<path d="M8.39364 5.58547C8.39364 5.37139 8.2201 5.19785 8.00603 5.19785C7.79195 5.19785 7.61841 5.37139 7.61841 5.58547C7.61841 5.79954 7.79195 5.97308 8.00603 5.97308C8.2201 5.97308 8.39364 5.79954 8.39364 5.58547Z" fill="#16A75C"/>
</svg>
