<svg width="10" height="13" viewBox="0 0 10 13" fill="none" xmlns="http://www.w3.org/2000/svg">
<path fill-rule="evenodd" clip-rule="evenodd" d="M3.84314 8.96361C3.84314 9.60584 4.36377 10.1265 5.00599 10.1265C5.64822 10.1265 6.16885 9.60584 6.16885 8.96361V6.541C6.16885 6.43396 6.08207 6.34719 5.97504 6.34719C5.868 6.34719 5.78123 6.43396 5.78123 6.541V8.96361C5.78123 9.39176 5.43414 9.73885 5.00599 9.73885C4.57784 9.73885 4.23076 9.39176 4.23076 8.96361V8.85459C4.23076 8.74756 4.14399 8.66079 4.03695 8.66079C3.92991 8.66079 3.84314 8.74756 3.84314 8.85459V8.96361Z" fill="#7FD9FF"/>
<path fill-rule="evenodd" clip-rule="evenodd" d="M4.03695 8.07941C4.14399 8.07941 4.23076 7.99264 4.23076 7.8856V6.54105C4.23076 6.43401 4.14399 6.34724 4.03695 6.34724C3.92991 6.34724 3.84314 6.43401 3.84314 6.54105V7.8856C3.84314 7.99264 3.92991 8.07941 4.03695 8.07941Z" fill="#9BDBB3"/>
<path fill-rule="evenodd" clip-rule="evenodd" d="M2.87415 8.96374C2.87415 10.1412 3.82863 11.0956 5.00604 11.0956C6.18346 11.0956 7.13794 10.1412 7.13794 8.96374V7.55863C7.13794 7.45159 7.05117 7.36482 6.94413 7.36482C6.83709 7.36482 6.75032 7.45159 6.75032 7.55863V8.96374C6.75032 9.92708 5.96938 10.708 5.00604 10.708C4.0427 10.708 3.26176 9.92708 3.26176 8.96374V8.50345C3.26176 8.39641 3.17499 8.30964 3.06795 8.30964C2.96092 8.30964 2.87415 8.39641 2.87415 8.50345L2.87415 8.96374Z" fill="#FFE483"/>
<path fill-rule="evenodd" clip-rule="evenodd" d="M3.06795 7.65558C3.17499 7.65558 3.26176 7.56881 3.26176 7.46177V5.80228C3.26176 5.69524 3.17499 5.60847 3.06795 5.60847C2.96092 5.60847 2.87415 5.69524 2.87415 5.80228V7.46177C2.87415 7.56881 2.96092 7.65558 3.06795 7.65558Z" fill="#7FD9FF"/>
<path fill-rule="evenodd" clip-rule="evenodd" d="M5.00594 2.71344C5.11298 2.71344 5.19975 2.62667 5.19975 2.51963V0.230264C5.19975 0.123226 5.11298 0.0364547 5.00594 0.0364547C4.8989 0.0364547 4.81213 0.123226 4.81213 0.230264V2.51963C4.81213 2.62667 4.8989 2.71344 5.00594 2.71344Z" fill="#7FD9FF"/>
<path fill-rule="evenodd" clip-rule="evenodd" d="M6.94405 6.78345C7.05109 6.78345 7.13786 6.69668 7.13786 6.58964V5.8144C7.13786 5.70737 7.05109 5.62059 6.94405 5.62059C6.83702 5.62059 6.75024 5.70737 6.75024 5.8144V6.58964C6.75024 6.69668 6.83702 6.78345 6.94405 6.78345Z" fill="#9BDBB3"/>
<path d="M8.10696 8.96369V4.82103C8.10696 4.71399 8.02019 4.62722 7.91315 4.62722C7.80611 4.62722 7.71934 4.71399 7.71934 4.82103V8.96369C7.71934 9.51395 7.55554 10.0259 7.27405 10.4536L7.59463 10.6716C7.91843 10.1818 8.10696 9.59479 8.10696 8.96369Z" fill="#7FD9FF"/>
<path d="M1.90515 8.95164C1.90515 10.6632 3.29244 12.0647 5.00609 12.0647C5.49261 12.0647 5.95297 11.9527 6.36276 11.753L6.19317 11.4043C5.83461 11.579 5.4318 11.6771 5.00609 11.6771C3.50861 11.6771 2.29277 10.4512 2.29277 8.95164C2.29277 8.8446 2.206 8.75783 2.09896 8.75783C1.99192 8.75783 1.90515 8.8446 1.90515 8.95164Z" fill="#9BDBB3"/>
<path fill-rule="evenodd" clip-rule="evenodd" d="M2.09896 7.83716C2.206 7.83716 2.29277 7.75039 2.29277 7.64335V4.84523C2.29277 4.7382 2.206 4.65142 2.09896 4.65142C1.99192 4.65142 1.90515 4.7382 1.90515 4.84523V7.64335C1.90515 7.75039 1.99192 7.83716 2.09896 7.83716Z" fill="#FFE483"/>
<path fill-rule="evenodd" clip-rule="evenodd" d="M5.00595 8.66095C5.11299 8.66095 5.19976 8.57418 5.19976 8.46714L5.19975 5.81438C5.19975 5.70734 5.11298 5.62057 5.00594 5.62057C4.89891 5.62057 4.81213 5.70734 4.81213 5.81438L4.81214 8.46714C4.81214 8.57418 4.89891 8.66095 5.00595 8.66095Z" fill="#FFE483"/>
<path d="M2.48654 7.67977C2.48654 7.46569 2.313 7.29215 2.09892 7.29215C1.88485 7.29215 1.7113 7.46569 1.7113 7.67977C1.7113 7.89384 1.88485 8.06738 2.09892 8.06738C2.313 8.06738 2.48654 7.89384 2.48654 7.67977Z" fill="#FFD026"/>
<path d="M3.45553 5.71742C3.45553 5.50335 3.28199 5.32981 3.06792 5.32981C2.85384 5.32981 2.6803 5.50335 2.6803 5.71742C2.6803 5.9315 2.85384 6.10504 3.06792 6.10504C3.28199 6.10504 3.45553 5.9315 3.45553 5.71742Z" fill="#2BB5EF"/>
<path fill-rule="evenodd" clip-rule="evenodd" d="M0.5 4.65133C0.5 4.75837 0.586771 4.84514 0.693809 4.84514L3.54038 4.84514C3.64741 4.84514 3.73419 4.75837 3.73419 4.65133C3.73419 4.54429 3.64741 4.45752 3.54038 4.45752L0.693809 4.45752C0.586771 4.45752 0.5 4.54429 0.5 4.65133Z" fill="#FFE483"/>
<path fill-rule="evenodd" clip-rule="evenodd" d="M4.13391 4.65133C4.13391 4.75837 4.22068 4.84514 4.32772 4.84514L9.30619 4.84514C9.41322 4.84514 9.49999 4.75837 9.49999 4.65133C9.49999 4.54429 9.41322 4.45752 9.30619 4.45752L4.32772 4.45752C4.22068 4.45752 4.13391 4.54429 4.13391 4.65133Z" fill="#7FD9FF"/>
<path d="M3.45553 8.4308C3.45553 8.21673 3.28199 8.04318 3.06792 8.04318C2.85384 8.04318 2.6803 8.21673 2.6803 8.4308C2.6803 8.64488 2.85384 8.81842 3.06792 8.81842C3.28199 8.81842 3.45553 8.64488 3.45553 8.4308Z" fill="#FFD026"/>
<path d="M5.39364 8.4308C5.39364 8.21673 5.2201 8.04318 5.00603 8.04318C4.79195 8.04318 4.61841 8.21673 4.61841 8.4308C4.61841 8.64488 4.79195 8.81842 5.00603 8.81842C5.2201 8.81842 5.39364 8.64488 5.39364 8.4308Z" fill="#FFD026"/>
<path d="M5.39364 5.71742C5.39364 5.50335 5.2201 5.32981 5.00603 5.32981C4.79195 5.32981 4.61841 5.50335 4.61841 5.71742C4.61841 5.9315 4.79195 6.10504 5.00603 6.10504C5.2201 6.10504 5.39364 5.9315 5.39364 5.71742Z" fill="#FFD026"/>
<path fill-rule="evenodd" clip-rule="evenodd" d="M4.81213 2.51955C4.81213 2.62659 4.8989 2.71336 5.00594 2.71336L7.36799 2.71336C7.47503 2.71336 7.5618 2.62659 7.5618 2.51955C7.5618 2.41252 7.47503 2.32574 7.36799 2.32574L5.00594 2.32574C4.8989 2.32574 4.81213 2.41252 4.81213 2.51955Z" fill="#7FD9FF"/>
<path fill-rule="evenodd" clip-rule="evenodd" d="M2.43811 2.51955C2.43811 2.62659 2.52488 2.71336 2.63192 2.71336L4.04915 2.71336C4.15618 2.71336 4.24296 2.62659 4.24296 2.51955C4.24296 2.41252 4.15618 2.32574 4.04915 2.32574L2.63192 2.32574C2.52488 2.32574 2.43811 2.41252 2.43811 2.51955Z" fill="#FFE483"/>
<path d="M7.33175 7.55867C7.33175 7.3446 7.15821 7.17105 6.94414 7.17105C6.73006 7.17105 6.55652 7.3446 6.55652 7.55867C6.55652 7.77275 6.73006 7.94629 6.94414 7.94629C7.15821 7.94629 7.33175 7.77275 7.33175 7.55867Z" fill="#FFD026"/>
<path d="M7.33175 5.71742C7.33175 5.50335 7.15821 5.32981 6.94414 5.32981C6.73006 5.32981 6.55652 5.50335 6.55652 5.71742C6.55652 5.9315 6.73006 6.10504 6.94414 6.10504C7.15821 6.10504 7.33175 5.9315 7.33175 5.71742Z" fill="#16A75C"/>
<path fill-rule="evenodd" clip-rule="evenodd" d="M1.46912 3.58553C1.46912 3.69257 1.55589 3.77934 1.66293 3.77934L8.33722 3.77934C8.44426 3.77934 8.53103 3.69257 8.53103 3.58553C8.53103 3.4785 8.44426 3.39172 8.33722 3.39172L1.66293 3.39172C1.55589 3.39172 1.46912 3.47849 1.46912 3.58553Z" fill="#9BDBB3"/>
<path d="M4.42453 7.87355C4.42453 7.65948 4.25099 7.48593 4.03691 7.48593C3.82283 7.48593 3.64929 7.65948 3.64929 7.87355C3.64929 8.08763 3.82283 8.26117 4.03691 8.26117C4.25099 8.26117 4.42453 8.08763 4.42453 7.87355Z" fill="#16A75C"/>
<path d="M4.42453 9.03639C4.42453 8.82232 4.25099 8.64878 4.03691 8.64878C3.82283 8.64878 3.64929 8.82232 3.64929 9.03639C3.64929 9.25047 3.82283 9.42401 4.03691 9.42401C4.25099 9.42401 4.42453 9.25047 4.42453 9.03639Z" fill="#2BB5EF"/>
<path d="M2.48654 8.93959C2.48654 8.72552 2.313 8.55197 2.09892 8.55197C1.88485 8.55197 1.7113 8.72552 1.7113 8.93959C1.7113 9.15367 1.88485 9.32721 2.09892 9.32721C2.313 9.32721 2.48654 9.15367 2.48654 8.93959Z" fill="#16A75C"/>
<path d="M6.65341 11.6285C6.65341 11.4144 6.47987 11.2409 6.26579 11.2409C6.05172 11.2409 5.87817 11.4144 5.87817 11.6285C5.87817 11.8426 6.05172 12.0161 6.26579 12.0161C6.47987 12.0161 6.65341 11.8426 6.65341 11.6285Z" fill="#16A75C"/>
<path d="M7.76779 10.611C7.76779 10.397 7.59425 10.2234 7.38017 10.2234C7.1661 10.2234 6.99255 10.397 6.99255 10.611C6.99255 10.8251 7.1661 10.9987 7.38017 10.9987C7.59425 10.9987 7.76779 10.8251 7.76779 10.611Z" fill="#2BB5EF"/>
<path d="M5.39364 2.51961C5.39364 2.30553 5.2201 2.13199 5.00603 2.13199C4.79195 2.13199 4.61841 2.30553 4.61841 2.51961C4.61841 2.73368 4.79195 2.90723 5.00603 2.90723C5.2201 2.90723 5.39364 2.73368 5.39364 2.51961Z" fill="#2BB5EF"/>
<path d="M5.39364 1.45369C5.39364 1.23962 5.2201 1.06607 5.00603 1.06607C4.79195 1.06607 4.61841 1.23962 4.61841 1.45369C4.61841 1.66777 4.79195 1.84131 5.00603 1.84131C5.2201 1.84131 5.39364 1.66777 5.39364 1.45369Z" fill="#2BB5EF"/>
<path d="M5.39364 0.387712C5.39364 0.173636 5.2201 9.41157e-05 5.00603 9.41157e-05C4.79195 9.41157e-05 4.61841 0.173636 4.61841 0.387712C4.61841 0.601787 4.79195 0.77533 5.00603 0.77533C5.2201 0.77533 5.39364 0.601787 5.39364 0.387712Z" fill="#2BB5EF"/>
<path d="M2.48654 4.65151C2.48654 4.43743 2.313 4.26389 2.09892 4.26389C1.88485 4.26389 1.7113 4.43743 1.7113 4.65151C1.7113 4.86558 1.88485 5.03912 2.09892 5.03912C2.313 5.03912 2.48654 4.86558 2.48654 4.65151Z" fill="#FFD026"/>
<path d="M8.30087 4.65151C8.30087 4.43743 8.12733 4.26389 7.91325 4.26389C7.69918 4.26389 7.52563 4.43743 7.52563 4.65151C7.52563 4.86558 7.69918 5.03912 7.91325 5.03912C8.12733 5.03912 8.30087 4.86558 8.30087 4.65151Z" fill="#2BB5EF"/>
<path d="M5.39364 3.58547C5.39364 3.37139 5.2201 3.19785 5.00603 3.19785C4.79195 3.19785 4.61841 3.37139 4.61841 3.58547C4.61841 3.79954 4.79195 3.97308 5.00603 3.97308C5.2201 3.97308 5.39364 3.79954 5.39364 3.58547Z" fill="#16A75C"/>
</svg>
